ModelForces																												
version=1																												
nRows=30																												
nColumns=29																												
inDegrees=no																												
																												
This file contains the forces exerted on a model during a simulation.																												
																												
"A force is a generalized force, meaning that it can be either a force (N) or a torque (Nm)."																												
																												
"Units are S.I. units (second, meters, Newtons, ...)"																												
"If the header above contains a line with 'inDegrees', this indicates whether rotational values are in degrees (yes) or radians (no)."																												
																												
endheader																												
time	gastroc	glut_max	iliopsoas	recfem	hamstrings	soleus	tibant	vasti	ankle_angle_LimitForce	PotentialEnergy	knee_angle_LimitForce	PotentialEnergy	hip_flexion_LimitForce	PotentialEnergy	patellofemoral_knee_angle_con_mobility_F0	patellofemoral_knee_angle_con_mobility_F1	seatConstraint_ground_Fx	seatConstraint_ground_Fy	seatConstraint_ground_Fz	seatConstraint_ground_Mx	seatConstraint_ground_My	seatConstraint_ground_Mz	seatConstraint_femur_r_Fx	seatConstraint_femur_r_Fy	seatConstraint_femur_r_Fz	seatConstraint_femur_r_Mx	seatConstraint_femur_r_My	seatConstraint_femur_r_Mz
1.03985133	1322.291226	277.8180532	1302.542989	15.19537341	162.0540595	129.4761694	1339.093844	672.2740623	0	0	0	0	0	0	-4.633153	4.633153	0	0	0	0	0	0	0	0	0	0	0	0
1.04418384	1316.548038	272.056187	1310.824059	15.2120685	155.0066485	103.2031316	1340.708549	654.9000047	0	0	0	0	0	0	-4.5045469	4.5045469	0	0	0	0	0	0	0	0	0	0	0	0
1.04851635	1310.712446	267.1691477	1317.98377	15.30803699	148.506703	96.52161455	1341.59868	642.7491566	0	0	0	0	0	0	-4.40600711	4.40600711	0	0	0	0	0	0	0	0	0	0	0	0
1.05499643	1303.348838	260.7528196	1326.4941	15.60076863	139.7490197	76.14170742	1341.219515	633.484268	0	0	0	0	0	0	-4.30931934	4.30931934	0	0	0	0	0	0	0	0	0	0	0	0
1.06147652	1299.436235	255.8573464	1332.210195	16.1093378	132.0011844	76.22715035	1338.459267	633.5483317	0	0	0	0	0	0	-4.27116264	4.27116264	0	0	0	0	0	0	0	0	0	0	0	0
1.06679516	1299.676721	252.8449057	1334.785263	16.69371298	126.2883078	58.54059531	1334.104722	639.8977645	0	0	0	0	0	0	-4.28151582	4.28151582	0	0	0	0	0	0	0	0	0	0	0	0
1.07211381	1303.596352	250.5265782	1335.394303	17.39203013	121.1065991	54.67009108	1327.775264	650.7540056	0	0	0	0	0	0	-4.32814397	4.32814397	0	0	0	0	0	0	0	0	0	0	0	0
1.07922694	1314.660964	247.9688776	1333.191211	18.46319725	114.8865223	71.5349085	1316.044777	671.5134769	0	0	0	0	0	0	-4.44902806	4.44902806	0	0	0	0	0	0	0	0	0	0	0	0
1.0901661	1343.514632	243.3839133	1323.654742	20.08274535	106.7980281	153.4099676	1291.185247	712.7672012	0	0	0	0	0	0	-4.7358793	4.7358793	0	0	0	0	0	0	0	0	0	0	0	0
1.09751734	1368.355179	238.322516	1314.2388	21.13741771	101.6680797	220.2120975	1270.855206	745.3423284	0	0	0	0	0	0	-4.97947689	4.97947689	0	0	0	0	0	0	0	0	0	0	0	0
1.1022565	1385.447048	233.8310708	1306.400113	21.61413938	98.79761699	271.0717445	1256.963773	765.3867885	0	0	0	0	0	0	-5.13370513	5.13370513	0	0	0	0	0	0	0	0	0	0	0	0
1.10699566	1402.609407	228.9554836	1290.763519	21.95031804	96.19796262	309.0330619	1243.02747	783.6552022	0	0	0	0	0	0	-5.27742973	5.27742973	0	0	0	0	0	0	0	0	0	0	0	0
1.11322545	1424.203618	222.1281658	1266.952476	22.2006943	93.16148958	338.5249551	1225.416259	803.8014672	0	0	0	0	0	0	-5.44106529	5.44106529	0	0	0	0	0	0	0	0	0	0	0	0
1.12269356	1452.818721	211.2004758	1226.686326	22.25702141	89.33579196	354.1556653	1201.736336	825.3763873	0	0	0	0	0	0	-5.62720208	5.62720208	0	0	0	0	0	0	0	0	0	0	0	0
1.13409592	1478.102763	198.0399989	1174.319064	22.00355222	85.82295401	341.0532636	1179.87021	839.8346358	0	0	0	0	0	0	-5.76748293	5.76748293	0	0	0	0	0	0	0	0	0	0	0	0
1.14549829	1492.487117	185.6299172	1119.459052	21.57873846	83.25752955	312.4789554	1165.274736	847.6247889	0	0	0	0	0	0	-5.8538062	5.8538062	0	0	0	0	0	0	0	0	0	0	0	0
1.15690065	1496.483024	174.2181094	1063.463906	21.06391192	81.55800525	281.0129507	1156.938737	853.1552183	0	0	0	0	0	0	-5.91517046	5.91517046	0	0	0	0	0	0	0	0	0	0	0	0
1.16830301	1491.36904	163.7673821	1007.444641	20.51479636	80.52356838	251.8980281	1153.709863	858.365716	0	0	0	0	0	0	-5.96513611	5.96513611	0	0	0	0	0	0	0	0	0	0	0	0
1.18494865	1470.382548	149.9366642	927.0050886	19.67095503	80.95374936	215.8023222	1156.217734	866.4178553	0	0	0	0	0	0	-6.02673397	6.02673397	0	0	0	0	0	0	0	0	0	0	0	0
1.19211547	1457.211613	144.3898334	893.1437133	19.3023196	89.6891742	202.4612788	1159.443941	869.9576114	0	0	0	0	0	0	-6.0495607	6.0495607	0	0	0	0	0	0	0	0	0	0	0	0
1.19928229	1442.155947	138.9851244	860.1106414	18.93773682	120.7401762	190.3265721	1163.744326	874.1663189	0	0	0	0	0	0	-6.0750887	6.0750887	0	0	0	0	0	0	0	0	0	0	0	0
1.2064491	1425.492687	134.3571258	830.4587516	18.59714425	164.8926373	179.3192934	1168.586395	878.4539237	0	0	0	0	0	0	-6.09994625	6.09994625	0	0	0	0	0	0	0	0	0	0	0	0
1.21361592	1407.657936	131.4105629	806.4966592	18.29283937	211.2071938	169.3766297	1172.573797	879.62567	0	0	0	0	0	0	-6.10325488	6.10325488	0	0	0	0	0	0	0	0	0	0	0	0
1.2308262	1362.54098	135.0787085	766.7056381	17.68264622	322.7726376	149.6240938	1173.604344	874.3730778	0	0	0	0	0	0	-6.05554402	6.05554402	0	0	0	0	0	0	0	0	0	0	0	0
1.23861369	1341.922107	146.869736	755.742362	17.58146003	373.9896792	142.3129281	1168.833452	868.4243041	0	0	0	0	0	0	-6.01049719	6.01049719	0	0	0	0	0	0	0	0	0	0	0	0
1.2481045	1316.92617	165.9544829	747.6468074	17.43260203	436.3912556	134.2131254	1158.5631	856.8886597	0	0	0	0	0	0	-5.9285911	5.9285911	0	0	0	0	0	0	0	0	0	0	0	0
1.26023192	1285.400445	190.776687	744.4300416	17.32108252	515.2736732	124.9495492	1138.766198	835.5555348	0	0	0	0	0	0	-5.78613452	5.78613452	0	0	0	0	0	0	0	0	0	0	0	0
1.27671585	1243.771931	222.0362823	750.2497153	17.37201157	617.7488372	114.2209362	1100.937926	797.2451483	0	0	0	0	0	0	-5.54623851	5.54623851	0	0	0	0	0	0	0	0	0	0	0	0
1.28455231	1224.690093	235.4475506	756.3770924	18.72565402	663.2353496	109.8452148	1079.068153	776.2315355	0	0	0	0	0	0	-5.42734833	5.42734833	0	0	0	0	0	0	0	0	0	0	0	0
1.29238876	1206.083088	247.7294629	764.4688727	25.85098218	706.1239692	105.8452625	1055.134764	753.6983456	0	0	0	0	0	0	-5.33277042	5.33277042	0	0	0	0	0	0	0	0	0	0	0	0
